<mxfile host="app.diagrams.net" modified="2023-12-10T13:35:06.952Z" agent="Mozilla/5.0 (Windows NT 10.0; Win64; x64) AppleWebKit/537.36 (KHTML, like Gecko) Chrome/119.0.0.0 Safari/537.36" etag="FUO774wXIMJx8NcbbzPk" version="22.1.7" type="device">
  <diagram name="第 1 页" id="s0s6LZ_YsEy3VQnSKz2T">
    <mxGraphModel dx="1434" dy="738" grid="1" gridSize="10" guides="1" tooltips="1" connect="1" arrows="1" fold="1" page="1" pageScale="1" pageWidth="3300" pageHeight="4681" math="0" shadow="0">
      <root>
        <mxCell id="0" />
        <mxCell id="1" parent="0" />
        <mxCell id="NoFhXxZheVJozcIi7Zmo-7" style="edgeStyle=orthogonalEdgeStyle;rounded=0;orthogonalLoop=1;jettySize=auto;html=1;fillColor=#f8cecc;strokeColor=#b85450;entryX=0.5;entryY=0;entryDx=0;entryDy=0;" edge="1" parent="1" source="NoFhXxZheVJozcIi7Zmo-1" target="NoFhXxZheVJozcIi7Zmo-3">
          <mxGeometry relative="1" as="geometry">
            <mxPoint x="390" y="230" as="targetPoint" />
            <Array as="points">
              <mxPoint x="520" y="210" />
            </Array>
          </mxGeometry>
        </mxCell>
        <mxCell id="NoFhXxZheVJozcIi7Zmo-1" value="head" style="rounded=0;whiteSpace=wrap;html=1;" vertex="1" parent="1">
          <mxGeometry x="130" y="180" width="120" height="60" as="geometry" />
        </mxCell>
        <mxCell id="NoFhXxZheVJozcIi7Zmo-8" style="edgeStyle=orthogonalEdgeStyle;rounded=0;orthogonalLoop=1;jettySize=auto;html=1;fillColor=#f8cecc;strokeColor=#b85450;entryX=0.5;entryY=0;entryDx=0;entryDy=0;" edge="1" parent="1" source="NoFhXxZheVJozcIi7Zmo-2" target="NoFhXxZheVJozcIi7Zmo-9">
          <mxGeometry relative="1" as="geometry">
            <mxPoint x="740" y="480" as="targetPoint" />
            <Array as="points">
              <mxPoint x="870" y="450" />
            </Array>
          </mxGeometry>
        </mxCell>
        <mxCell id="NoFhXxZheVJozcIi7Zmo-2" value="rear" style="rounded=0;whiteSpace=wrap;html=1;" vertex="1" parent="1">
          <mxGeometry x="810" y="220" width="120" height="60" as="geometry" />
        </mxCell>
        <mxCell id="NoFhXxZheVJozcIi7Zmo-14" style="edgeStyle=orthogonalEdgeStyle;rounded=0;orthogonalLoop=1;jettySize=auto;html=1;entryX=0.5;entryY=0;entryDx=0;entryDy=0;" edge="1" parent="1" source="NoFhXxZheVJozcIi7Zmo-3" target="NoFhXxZheVJozcIi7Zmo-9">
          <mxGeometry relative="1" as="geometry" />
        </mxCell>
        <mxCell id="NoFhXxZheVJozcIi7Zmo-3" value="temp" style="whiteSpace=wrap;html=1;" vertex="1" parent="1">
          <mxGeometry x="460" y="290" width="120" height="60" as="geometry" />
        </mxCell>
        <mxCell id="NoFhXxZheVJozcIi7Zmo-5" value="NULL" style="whiteSpace=wrap;html=1;" vertex="1" parent="1">
          <mxGeometry x="620" y="110" width="120" height="60" as="geometry" />
        </mxCell>
        <mxCell id="NoFhXxZheVJozcIi7Zmo-15" style="edgeStyle=orthogonalEdgeStyle;rounded=0;orthogonalLoop=1;jettySize=auto;html=1;" edge="1" parent="1" source="NoFhXxZheVJozcIi7Zmo-9">
          <mxGeometry relative="1" as="geometry">
            <mxPoint x="520" y="360" as="targetPoint" />
          </mxGeometry>
        </mxCell>
        <mxCell id="NoFhXxZheVJozcIi7Zmo-16" style="edgeStyle=orthogonalEdgeStyle;rounded=0;orthogonalLoop=1;jettySize=auto;html=1;entryX=1;entryY=0.5;entryDx=0;entryDy=0;" edge="1" parent="1" source="NoFhXxZheVJozcIi7Zmo-9" target="NoFhXxZheVJozcIi7Zmo-5">
          <mxGeometry relative="1" as="geometry">
            <Array as="points">
              <mxPoint x="1150" y="480" />
              <mxPoint x="1150" y="140" />
            </Array>
          </mxGeometry>
        </mxCell>
        <mxCell id="NoFhXxZheVJozcIi7Zmo-9" value="temp2" style="whiteSpace=wrap;html=1;" vertex="1" parent="1">
          <mxGeometry x="930" y="450" width="120" height="60" as="geometry" />
        </mxCell>
        <mxCell id="NoFhXxZheVJozcIi7Zmo-13" style="edgeStyle=orthogonalEdgeStyle;rounded=0;orthogonalLoop=1;jettySize=auto;html=1;entryX=0.008;entryY=0.4;entryDx=0;entryDy=0;entryPerimeter=0;" edge="1" parent="1" source="NoFhXxZheVJozcIi7Zmo-3" target="NoFhXxZheVJozcIi7Zmo-5">
          <mxGeometry relative="1" as="geometry">
            <Array as="points">
              <mxPoint x="430" y="320" />
              <mxPoint x="430" y="134" />
            </Array>
          </mxGeometry>
        </mxCell>
      </root>
    </mxGraphModel>
  </diagram>
</mxfile>
